<?xml version="1.0" standalone="no"?>
<!DOCTYPE svg PUBLIC "-//W3C//DTD SVG 20010904//EN"
 "http://www.w3.org/TR/2001/REC-SVG-20010904/DTD/svg10.dtd">
<svg version="1.0" xmlns="http://www.w3.org/2000/svg"
 width="500.000000pt" height="500.000000pt" viewBox="0 0 500.000000 500.000000"
 preserveAspectRatio="xMidYMid meet">
<metadata>
Created by potrace 1.14, written by Peter Selinger 2001-2017
</metadata>
<g transform="translate(0.000000,500.000000) scale(0.100000,-0.100000)"
fill="#000000" stroke="none">
<path d="M3325 4143 c-253 -33 -425 -130 -533 -299 -105 -166 -154 -498 -107
-734 3 -14 8 -40 11 -57 7 -40 17 -42 32 -8 21 45 102 123 146 140 52 20 104
25 132 12 49 -21 84 -138 50 -166 -18 -15 -70 -19 -71 -6 -6 78 -32 114 -69
97 -39 -18 -56 -87 -52 -211 6 -166 52 -281 113 -281 36 0 110 39 139 73 26
31 86 142 80 148 -2 2 -6 27 -10 54 -3 28 -11 77 -17 110 -6 33 -12 71 -13 85
-2 14 -6 46 -10 71 -7 42 -10 45 -32 41 -19 -3 -24 0 -24 16 0 11 9 26 19 33
18 12 19 20 11 64 -5 28 -11 67 -13 87 l-5 38 77 42 c42 24 80 43 85 43 5 0
10 -9 12 -20 16 -114 28 -175 35 -175 4 0 20 5 34 12 28 13 30 12 39 -19 6
-18 1 -23 -29 -33 -30 -10 -38 -19 -37 -40 1 -11 14 -99 28 -190 9 -52 17
-111 20 -130 11 -87 32 -129 62 -124 6 1 17 2 22 3 22 3 56 55 65 103 8 39 16
53 34 60 l24 8 -6 -71 c-9 -119 -63 -203 -162 -251 -37 -18 -96 -15 -127 6
-12 9 -32 32 -43 51 l-21 34 -28 -60 c-16 -33 -51 -81 -78 -108 l-50 -48 56
-32 c100 -56 162 -77 254 -86 60 -6 91 6 154 63 64 58 116 135 195 290 40 79
73 141 73 139 0 -4 -14 -78 -24 -125 -15 -71 -61 -198 -99 -272 -69 -134 -134
-173 -292 -173 -94 1 -134 6 -235 34 -69 19 -95 31 -205 88 -22 11 -56 23 -76
26 -19 3 -45 14 -57 25 -32 30 -43 24 -56 -31 0 -3 -12 -22 -26 -42 -26 -38
-111 -87 -150 -87 -32 0 -89 30 -101 52 -9 18 -14 13 -39 -39 -36 -73 -47 -86
-90 -108 -52 -28 -128 -26 -172 4 -20 14 -42 35 -50 48 -14 23 -14 23 -41 -34
-33 -72 -104 -147 -171 -182 -74 -38 -168 -37 -219 2 -83 63 -131 250 -106
411 11 65 50 144 95 189 89 89 226 107 265 35 66 -122 19 -277 -111 -362 l-58
-38 14 -41 c30 -85 78 -106 152 -68 43 22 69 49 107 110 27 44 27 45 14 115
-31 160 -8 309 61 396 63 79 178 122 218 82 l20 -20 -5 31 c-4 31 -3 33 54 54
32 13 73 25 91 29 30 6 32 5 33 -22 0 -16 2 -36 4 -44 1 -8 8 -46 14 -85 6
-38 13 -81 15 -95 2 -14 9 -61 16 -105 20 -134 33 -164 71 -165 23 0 66 46 72
76 6 34 -21 106 -66 177 -32 50 -108 250 -121 317 -2 14 -9 46 -15 72 -12 51
-25 188 -25 258 0 89 14 187 44 308 16 68 30 136 30 151 0 53 -49 76 -230 110
-275 51 -618 45 -870 -14 -14 -3 -36 -8 -50 -11 -35 -7 -181 -56 -270 -91
-175 -69 -332 -176 -502 -343 -71 -68 -128 -129 -128 -136 0 -7 -4 -14 -9 -16
-20 -7 -153 -205 -202 -300 -134 -259 -207 -484 -201 -617 3 -53 7 -61 36 -61
31 0 97 59 145 131 60 90 88 120 104 113 9 -3 25 -41 37 -87 23 -84 88 -263
119 -326 65 -134 125 -225 217 -332 58 -66 68 -102 68 -249 1 -112 -10 -286
-19 -300 -1 -3 -6 -32 -9 -65 -3 -33 -8 -71 -10 -85 -22 -126 -40 -286 -40
-362 -1 -69 2 -80 29 -120 35 -50 145 -111 223 -124 26 -4 54 -9 62 -11 32 -9
384 -9 467 0 108 11 185 38 203 72 11 21 10 31 -5 72 -22 60 -62 156 -86 208
-76 163 -113 396 -80 498 18 53 64 112 104 131 57 27 95 23 162 -17 86 -50
154 -68 275 -72 127 -4 207 8 279 40 110 51 181 26 238 -85 72 -142 84 -312
39 -564 -14 -82 -26 -164 -26 -182 0 -40 20 -55 100 -78 89 -25 154 -31 345
-30 185 1 288 16 342 51 30 20 39 73 23 142 -8 31 -15 63 -16 72 -2 9 -13 38
-25 65 -62 143 -83 279 -68 434 14 151 24 190 71 284 34 68 74 107 138 137 25
11 96 50 158 86 198 115 278 136 348 92 93 -57 68 -142 -93 -326 -154 -176
-206 -266 -209 -365 -5 -137 79 -337 191 -454 56 -59 63 -63 95 -58 93 13 199
70 237 126 52 78 32 141 -62 198 -63 37 -94 80 -95 133 -1 78 101 202 300 362
221 178 300 264 398 430 59 101 116 284 140 450 9 67 8 342 -2 430 -16 143
-80 404 -124 505 -9 19 -16 37 -17 40 -3 19 -112 222 -152 282 -57 87 -190
224 -253 260 -88 51 -495 157 -720 188 -86 12 -310 20 -365 13z m-2040 -1294
c82 -23 143 -120 132 -208 -6 -48 -34 -121 -54 -143 -15 -17 -14 -18 14 -18
76 0 120 -77 138 -245 11 -107 15 -129 31 -173 9 -25 26 -48 41 -55 l25 -13
-39 -25 c-84 -55 -134 -61 -173 -20 -28 31 -34 53 -45 171 -13 142 -18 168
-35 207 -26 60 -64 73 -122 42 -23 -12 -23 -10 12 -207 5 -31 12 -78 15 -104
3 -27 12 -79 19 -117 7 -38 11 -73 7 -78 -5 -8 -163 -73 -168 -69 -1 1 -8 45
-19 114 -3 20 -9 62 -14 92 -10 58 -15 90 -25 155 -6 46 -6 44 -34 225 -12 74
-26 160 -31 190 -9 50 -8 56 10 70 29 21 150 83 155 79 2 -2 8 -42 14 -89 13
-93 21 -147 26 -170 2 -8 4 -20 4 -27 1 -7 8 -10 19 -6 56 20 95 94 96 183 3
182 -123 234 -288 121 -138 -95 -181 -247 -109 -390 17 -36 26 -64 20 -68 -19
-12 -87 -5 -111 11 -41 26 -60 73 -60 147 0 98 43 180 151 287 46 45 89 82 96
82 7 0 24 6 38 14 25 13 65 25 103 33 11 2 22 6 25 8 8 9 96 5 136 -6z"/>
<path d="M2291 2867 c-51 -25 -66 -71 -66 -197 0 -167 40 -270 105 -270 56 0
89 70 76 165 -2 22 -8 65 -12 95 -3 30 -8 62 -9 70 -2 8 -6 39 -10 68 -5 37
-14 57 -28 67 -26 18 -26 18 -56 2z"/>
<path d="M1787 2686 c-23 -34 -36 -119 -31 -204 2 -41 5 -77 8 -79 3 -3 22 13
43 34 61 62 81 160 49 237 -18 43 -46 48 -69 12z"/>
</g>
</svg>
